<?xml version="1.0" encoding="iso-8859-1"?>
<!-- Generator: Adobe Illustrator 19.0.0, SVG Export Plug-In . SVG Version: 6.00 Build 0)  -->
<svg version="1.1" id="Capa_1" xmlns="http://www.w3.org/2000/svg" xmlns:xlink="http://www.w3.org/1999/xlink" x="0px" y="0px"
	 viewBox="0 0 512.002 512.002" style="enable-background:new 0 0 512.002 512.002;" xml:space="preserve">
<path style="fill:#31AF74;" d="M289.5,414.936h96.976V196.234l35.878,35.878L502,152.466l-93.176-93.08
	c-14.313-14.298-33.706-22.344-53.937-22.376l-34.302-0.055h-0.792v20.208c0,35.232-28.562,63.794-63.794,63.794l0,0
	c-35.232,0-63.794-28.562-63.794-63.794V36.954h-35.019c-20.288,0-39.746,8.06-54.091,22.407L10,152.466l79.646,79.646
	l35.855-35.855v218.679H289.5z"/>
<path style="fill:#FFD280;" d="M271.785,388.568l-82.667,82.667c-5.098,5.098-13.363,5.098-18.461,0L67.721,368.3
	c-5.098-5.098-5.098-13.363,0-18.461l163.122-163.122c2.45-2.45,5.773-3.825,9.238-3.823l102.999,0.057
	c7.209,0.004,13.051,5.852,13.046,13.061l-0.057,102.873c-0.002,3.46-1.377,6.777-3.823,9.223l-34.643,34.643"/>
<path d="M509.068,145.392l-93.176-93.081c-16.295-16.278-37.954-25.264-60.987-25.301l-34.318-0.056h-0.792c-5.522,0-10,4.477-10,10
	v20.208c0,29.662-24.132,53.794-53.794,53.794s-53.794-24.132-53.794-53.794V36.954c0-5.523-4.478-10-10-10h-35.019
	c-23.105,0-44.826,8.998-61.162,25.336L2.929,145.396c-3.905,3.905-3.905,10.237,0,14.142l79.646,79.646
	c3.906,3.905,10.236,3.905,14.143,0l18.784-18.784v22.801c0,5.523,4.478,10,10,10c5.522,0,10-4.477,10-10v-46.944
	c0-4.044-2.437-7.691-6.173-9.239c-3.737-1.547-8.038-0.692-10.898,2.167l-28.784,28.784l-65.504-65.504l86.026-86.034
	c12.559-12.561,29.257-19.478,47.02-19.478h25.019v10.208c0,40.69,33.104,73.794,73.794,73.794s73.794-33.104,73.794-73.794V46.969
	l25.077,0.041c17.708,0.029,34.358,6.937,46.886,19.451l86.098,86.009l-65.5,65.5l-28.807-28.807
	c-2.859-2.86-7.161-3.714-10.898-2.167c-3.736,1.548-6.173,5.194-6.173,9.239v208.702H289.5c-5.522,0-10,4.477-10,10s4.478,10,10,10
	h96.977c5.522,0,10-4.477,10-10v-194.56l18.807,18.807c3.906,3.905,10.236,3.905,14.143,0l79.646-79.646
	c1.876-1.876,2.93-4.421,2.929-7.074C511.999,149.811,510.945,147.267,509.068,145.392z"/>
<path d="M164.535,106.772c17.979,34.01,53.026,55.137,91.465,55.137c5.522,0,10-4.477,10-10s-4.478-10-10-10
	c-31.006,0-59.278-17.045-73.783-44.484c-2.581-4.882-8.631-6.749-13.515-4.167C163.821,95.839,161.954,101.89,164.535,106.772z"/>
<path d="M173.649,71.764c-0.841-5.458-5.932-9.192-11.403-8.354c-5.458,0.84-9.201,5.956-8.361,11.414
	c0.761,4.942,5.017,8.476,9.869,8.476c0.497,0,1.001-0.037,1.507-0.114c5.45-0.823,9.206-5.906,8.398-11.358
	C173.656,71.811,173.652,71.782,173.649,71.764z"/>
<path d="M278.856,381.497c-3.906-3.905-10.236-3.905-14.143,0l-82.667,82.667c-1.189,1.191-3.129,1.191-4.318,0L74.791,361.228
	c-0.739-0.739-0.895-1.582-0.895-2.158c0-0.577,0.155-1.419,0.896-2.159l163.12-163.122c0.577-0.577,1.345-0.895,2.161-0.895h0.001
	l91.006,0.05l-8.26,8.26c-3.905,3.905-3.905,10.237,0,14.142c1.953,1.953,4.512,2.929,7.071,2.929c2.559,0,5.118-0.977,7.071-2.929
	l9.156-9.156l-0.051,92.688c0,0.815-0.318,1.581-0.896,2.158l-34.643,34.643c-3.905,3.905-3.905,10.237,0,14.143
	c3.906,3.904,10.236,3.904,14.143,0l34.643-34.643c4.352-4.352,6.749-10.136,6.753-16.289l0.057-102.873
	c0.001-2.881-0.542-5.675-1.545-8.286l8.072-8.072c3.905-3.905,3.905-10.237,0-14.142s-10.235-3.905-14.143,0l-8.501,8.501
	c-2.212-0.695-4.539-1.065-6.924-1.067l-102.998-0.057c-0.005,0-0.009,0-0.014,0c-6.157,0-11.946,2.397-16.302,6.752L60.651,342.767
	c-4.355,4.354-6.754,10.144-6.754,16.302s2.398,11.947,6.753,16.301l102.936,102.936c4.494,4.494,10.398,6.741,16.302,6.741
	s11.808-2.247,16.302-6.741l82.667-82.667C282.761,391.734,282.761,385.402,278.856,381.497z"/>
<path d="M162.906,402.367c-3.906-3.905-10.236-3.905-14.143,0c-3.905,3.905-3.905,10.237,0,14.143
	c5.204,5.204,12.102,7.781,19.15,7.78c7.657,0,15.491-3.043,21.514-9.065c11.565-11.566,12.143-29.808,1.286-40.664
	c-5.391-5.391-12.714-8.145-20.55-7.768c-7.493,0.363-14.633,3.575-20.105,9.044c-0.003,0.003-0.006,0.005-0.009,0.008
	c-1.953,1.953-4.418,3.096-6.94,3.219c-1.237,0.062-3.615-0.109-5.439-1.934c-3.059-3.058-2.481-8.611,1.286-12.379
	c3.767-3.767,9.32-4.345,12.379-1.285c3.906,3.905,10.236,3.905,14.143,0c3.905-3.905,3.905-10.237,0-14.143
	c-10.857-10.856-29.098-10.279-40.664,1.285c-11.565,11.566-12.143,29.808-1.286,40.664c5.062,5.062,11.805,7.803,19.118,7.803
	c0.476,0,0.953-0.012,1.433-0.035c7.496-0.363,14.64-3.579,20.114-9.053c0.001-0.001,0.002-0.002,0.003-0.003
	c1.953-1.952,4.415-3.093,6.937-3.216c1.25-0.057,3.616,0.11,5.439,1.934c3.059,3.058,2.481,8.611-1.286,12.379
	C171.518,404.849,165.965,405.426,162.906,402.367z"/>
<path d="M272.547,332.106l18.559-18.559c3.905-3.905,3.905-10.237,0-14.142c-3.906-3.905-10.236-3.905-14.143,0l-11.487,11.488
	l-43.401-43.402c-3.906-3.905-10.236-3.905-14.143,0c-3.905,3.905-3.905,10.237,0,14.143l50.473,50.473
	c1.876,1.875,4.419,2.929,7.071,2.929S270.672,333.982,272.547,332.106z"/>
<path d="M327.012,277.642c3.905-3.905,3.905-10.237,0-14.142s-10.235-3.905-14.143,0l-13.016,13.015l-11.094-11.094l6.641-6.64
	c3.905-3.905,3.905-10.237,0-14.142s-10.235-3.905-14.143,0l-6.641,6.64l-11.094-11.094l13.016-13.015
	c3.905-3.905,3.905-10.237,0-14.143c-3.906-3.905-10.236-3.905-14.143,0l-20.086,20.086c-3.905,3.905-3.905,10.237,0,14.142
	l25.231,25.231c0.002,0.002,0.003,0.003,0.005,0.005s0.003,0.003,0.005,0.005l25.231,25.232c1.953,1.953,4.512,2.929,7.071,2.929
	c2.559,0,5.118-0.977,7.071-2.929L327.012,277.642z"/>
<path d="M228.754,342.799l17.111,7.192c5.095,2.141,10.954-0.252,13.094-5.344c2.14-5.091-0.253-10.954-5.344-13.093l-71.075-29.873
	c-3.747-1.573-8.071-0.726-10.946,2.148c-2.873,2.873-3.722,7.199-2.147,10.945l29.872,71.074c1.608,3.826,5.317,6.128,9.223,6.128
	c1.292,0,2.605-0.252,3.871-0.784c5.091-2.14,7.483-8.002,5.344-13.093l-7.188-17.101l18.044-18.043
	C228.663,342.905,228.705,342.85,228.754,342.799z M197.377,329.611l11.472,4.822l-6.65,6.65L197.377,329.611z"/>
<path d="M294.7,375.646c2.64,0,5.21-1.07,7.069-2.93c1.87-1.86,2.931-4.44,2.931-7.07s-1.061-5.21-2.931-7.07
	c-1.859-1.86-4.43-2.93-7.069-2.93c-2.631,0-5.21,1.07-7.07,2.93s-2.93,4.44-2.93,7.07c0,2.64,1.069,5.21,2.93,7.07
	C289.49,374.576,292.07,375.646,294.7,375.646z"/>
<g>
</g>
<g>
</g>
<g>
</g>
<g>
</g>
<g>
</g>
<g>
</g>
<g>
</g>
<g>
</g>
<g>
</g>
<g>
</g>
<g>
</g>
<g>
</g>
<g>
</g>
<g>
</g>
<g>
</g>
</svg>
