<svg height="492pt" viewBox="-10 0 492 492.00333" width="492pt" xmlns="http://www.w3.org/2000/svg"><path d="m231.953125 361.160156 4 1.289063 71.570313-23.078125c4.882812 15.703125 14.480468 29.527344 27.492187 39.589844l-1.792969 42.257812c-32.28125 17.625-68.488281 26.835938-105.269531 26.78125-121.5 0-220-98.5-220-220s98.5-220 220-220 220 98.5 220 220c.007813 12.058594-.972656 24.097656-2.929687 36-22.871094-27.019531-60.773438-35.808594-93.199219-21.609375v-75.472656l-115.871094-37.367188-115.867187 37.367188v158.160156zm0 0" fill="#00efd1"/><path d="m445.023438 264c24.273437 28.671875 25.335937 70.367188 2.5625 100.242188-22.777344 29.875-63.265626 39.894531-97.34375 24.085937-34.078126-15.808594-52.578126-53.191406-44.476563-89.875s40.621094-62.796875 78.1875-62.785156c23.542969-.046875 45.902344 10.328125 61.070313 28.332031zm0 0" fill="#fedb41"/><path d="m333.222656 421.21875 1.792969-42.257812c28.820313 22.277343 69.054687 22.277343 97.878906 0l4.300781 101.949218c.042969 1.1875-.628906 2.289063-1.707031 2.796875-1.078125.507813-2.355469.324219-3.246093-.46875l-46.25-39.859375c-.53125-.554687-1.269532-.871094-2.039063-.871094s-1.503906.316407-2.039063.871094l-46.25 39.859375c-.890624.792969-2.167968.976563-3.242187.46875-1.078125-.507812-1.75-1.609375-1.707031-2.796875l2.507812-59.601562zm0 0" fill="#f4b844"/><path d="m351.824219 166.917969v75.472656c-37.261719 16.375-56.316407 58.09375-44.300781 96.980469l-71.570313 23.078125-4-1.289063v-157.160156l.289063-.910156 3.710937 1.199218zm0 0" fill="#00acea"/><path d="m351.824219 166.917969-115.871094 37.371093-3.710937-1.199218-112.15625-36.171875 115.867187-37.367188zm0 0" fill="#fedb41"/><path d="m232.242188 203.089844-.289063.910156v157.160156l-111.867187-36.082031v-158.160156zm0 0" fill="#00acea"/><g fill="#083863"><path d="m455.953125 228c0-92.21875-55.550781-175.355469-140.746094-210.644531-85.199219-35.289063-183.265625-15.785157-248.472656 49.425781-78.25 78.304688-88.957031 201.496094-25.390625 292.128906 63.566406 90.628906 183.046875 122.511719 283.316406 75.605469l-1.9375 46.058594c0 .109375-.007812.222656-.007812.335937-.007813 4.320313 2.488281 8.25 6.398437 10.085938 3.914063 1.808594 8.527344 1.144531 11.773438-1.695313l43.066406-37.117187 43.101563 37.140625c3.261718 2.816406 7.875 3.460937 11.785156 1.648437 3.914062-1.816406 6.398437-5.75 6.355468-10.0625 0-.113281 0-.226562-.007812-.335937l-4.132812-97.949219c35.777343-30.511719 41.246093-83.757812 12.414062-120.902344 1.652344-11.164062 2.484375-22.4375 2.484375-33.722656zm-440 0c0-116.902344 95.101563-212 212-212 116.902344 0 212 95.097656 212 212 0 6.378906-.300781 12.761719-.855469 19.085938-22.214844-17.875-51.71875-23.863282-79.144531-16.0625v-64.101563c-.027344-3.480469-2.289063-6.554687-5.609375-7.613281l-115.898438-37.371094c-1.601562-.511719-3.328124-.511719-4.929687 0l-115.941406 37.371094c-3.320313 1.058594-5.585938 4.125-5.621094 7.609375v158.160156c.027344 3.484375 2.292969 6.554687 5.609375 7.613281l115.902344 37.371094c1.601562.515625 3.328125.515625 4.933594 0l64.238281-20.714844c5.3125 12.859375 13.613281 24.265625 24.21875 33.273438l-1.425781 33.660156c-30.132813 15.578125-63.554688 23.710938-97.476563 23.71875-116.898437 0-212-95.101562-212-212zm280.066406 87.667969c-.007812 6.183593.632813 12.351562 1.910157 18.402343l-57.976563 18.683594v-141.347656l104-33.5v59.445312c-29.320313 15.136719-47.796875 45.320313-47.933594 78.316407zm-168.066406-137.761719 96 30.914062v141.355469l-96-30.921875zm108 17.976562-89.808594-28.964843 89.808594-28.960938 89.808594 28.960938zm155.414063 241.566407c-4.160157-3.933594-10.667969-3.933594-14.828126 0l-37.34375 32.1875 2.023438-47.992188c0-.054687 0-.136719 0-.214843l1.191406-28.144532c25.960938 13.84375 57.113282 13.84375 83.074219 0l3.222656 76.347656zm36.628906-64.8125c-18.675782 14.425781-43.230469 18.792969-65.734375 11.6875-22.503907-7.109375-40.097657-24.789063-47.09375-47.324219-10.816407-35 6.335937-72.546875 39.871093-87.289062 33.308594-14.59375 72.269532-2.066407 90.828126 29.203124 18.5625 31.273438 10.894531 71.476563-17.875 93.71875zm0 0"/><path d="m419.605469 280.921875-47.261719 47.265625-24.015625-24.246094c-3.109375-3.140625-8.171875-3.164062-11.3125-.054687s-3.164063 8.171875-.054687 11.3125l29.667968 30.195312c1.472656 1.578125 3.507813 2.515625 5.667969 2.605469h.015625c2.152344-.089844 4.183594-1.015625 5.660156-2.578125l52.949219-53.066406c3.15625-3.125 3.183594-8.21875.058594-11.375s-8.21875-3.183594-11.375-.058594zm0 0"/></g></svg>